<svg width="1920" height="460" viewBox="0 0 1920 460" fill="none" xmlns="http://www.w3.org/2000/svg">
<mask id="mask0_6029_613" style="mask-type:alpha" maskUnits="userSpaceOnUse" x="0" y="0" width="1920" height="460">
<rect width="1920" height="460" fill="#D9D9D9"/>
</mask>
<g mask="url(#mask0_6029_613)">
<path d="M2075.37 106H1904.63C1880.53 106 1861 125.534 1861 149.63V320.37C1861 344.466 1880.53 364 1904.63 364H2075.37C2099.47 364 2119 344.466 2119 320.37V149.63L2118.99 148.504C2118.4 125.302 2099.7 106.602 2076.5 106.015L2075.37 106Z" stroke="#9FC244" stroke-width="2"/>
<path d="M15.3701 106H-155.37C-179.466 106 -199 125.534 -199 149.63V320.37C-199 344.466 -179.466 364 -155.37 364H15.3701C39.4662 364 58.9999 344.466 59 320.37V149.63L58.9854 148.504C58.3975 125.302 39.6976 106.602 16.4961 106.015L15.3701 106Z" stroke="#9FC244" stroke-width="2"/>
<path d="M1718.87 -57H1641.28C1630.63 -57 1622 -48.3532 1622 -37.6836V40.0391C1622 50.7085 1630.63 59.3545 1641.28 59.3545H1718.87C1729.52 59.3545 1738.15 50.7085 1738.15 40.0391V-37.6836C1738.15 -48.3532 1729.52 -57 1718.87 -57Z" stroke="#9FC244" stroke-width="2"/>
<path d="M541.275 -328H798.647C835.248 -328 864.922 -298.277 864.922 -261.608V-3.79102C864.922 32.8775 835.248 62.6004 798.647 62.6006H541.275C504.674 62.6006 475 32.8776 475 -3.79102V-261.608C475 -298.277 504.674 -328 541.275 -328Z" stroke="#9FC244" stroke-width="2"/>
</g>
</svg>
