<svg width="1920" height="579" viewBox="0 0 1920 579" fill="none" xmlns="http://www.w3.org/2000/svg">
<mask id="mask0_2360_743" style="mask-type:alpha" maskUnits="userSpaceOnUse" x="0" y="0" width="1920" height="579">
<rect width="1920" height="579" fill="#D9D9D9"/>
</mask>
<g mask="url(#mask0_2360_743)">
<path d="M155.281 517.891H232.869C243.516 517.891 252.15 526.537 252.15 537.207V614.93C252.15 625.599 243.516 634.245 232.869 634.245H155.281C144.634 634.245 136 625.599 136 614.93V537.207C136 526.537 144.634 517.891 155.281 517.891Z" stroke="#9FC244" stroke-width="2"/>
<path d="M541.275 249H798.647C835.248 249 864.922 278.723 864.922 315.392V573.209C864.922 609.877 835.248 639.6 798.647 639.601H541.275C504.674 639.601 475 609.878 475 573.209V315.392C475 278.723 504.674 249 541.275 249Z" stroke="#9FC244" stroke-width="2"/>
<path d="M1718.87 520H1641.28C1630.63 520 1622 528.647 1622 539.316V617.039C1622 627.709 1630.63 636.354 1641.28 636.354H1718.87C1729.52 636.354 1738.15 627.709 1738.15 617.039V539.316C1738.15 528.647 1729.52 520 1718.87 520Z" stroke="#9FC244" stroke-width="2"/>
<path d="M1358.65 526.906H1101.27C1064.67 526.906 1035 556.629 1035 593.298V851.115C1035 887.784 1064.67 917.507 1101.27 917.507H1358.65C1395.25 917.507 1424.92 887.784 1424.92 851.115V593.298C1424.92 556.629 1395.25 526.906 1358.65 526.906Z" stroke="#9FC244" stroke-width="2"/>
</g>
</svg>
